<svg width="125" height="24" viewBox="0 0 125 24" fill="none" xmlns="http://www.w3.org/2000/svg">
<path d="M12 8.87579C10.2797 8.87579 8.87577 10.2797 8.87577 12C8.87577 13.7203 10.2797 15.1242 12 15.1242C13.7203 15.1242 15.1242 13.7203 15.1242 12C15.1242 10.2797 13.7203 8.87579 12 8.87579ZM21.3703 12C21.3703 10.7063 21.382 9.42423 21.3094 8.13283C21.2367 6.63283 20.8945 5.30158 19.7976 4.2047C18.6984 3.10548 17.3695 2.76564 15.8695 2.69298C14.5758 2.62033 13.2937 2.63204 12.0023 2.63204C10.7086 2.63204 9.42655 2.62033 8.13515 2.69298C6.63515 2.76564 5.3039 3.10783 4.20702 4.2047C3.1078 5.30392 2.76796 6.63283 2.6953 8.13283C2.62265 9.42658 2.63436 10.7086 2.63436 12C2.63436 13.2914 2.62265 14.5758 2.6953 15.8672C2.76796 17.3672 3.11015 18.6985 4.20702 19.7953C5.30624 20.8945 6.63515 21.2344 8.13515 21.307C9.4289 21.3797 10.7109 21.368 12.0023 21.368C13.2961 21.368 14.5781 21.3797 15.8695 21.307C17.3695 21.2344 18.7008 20.8922 19.7976 19.7953C20.8969 18.6961 21.2367 17.3672 21.3094 15.8672C21.3844 14.5758 21.3703 13.2938 21.3703 12ZM12 16.807C9.33983 16.807 7.19296 14.6602 7.19296 12C7.19296 9.33986 9.33983 7.19298 12 7.19298C14.6601 7.19298 16.807 9.33986 16.807 12C16.807 14.6602 14.6601 16.807 12 16.807ZM17.0039 8.11876C16.3828 8.11876 15.8812 7.6172 15.8812 6.99611C15.8812 6.37501 16.3828 5.87345 17.0039 5.87345C17.625 5.87345 18.1266 6.37501 18.1266 6.99611C18.1267 7.14359 18.0978 7.28966 18.0415 7.42595C17.9851 7.56224 17.9024 7.68607 17.7981 7.79036C17.6939 7.89464 17.57 7.97733 17.4337 8.03368C17.2974 8.09004 17.1514 8.11895 17.0039 8.11876Z" fill="#359740"/>
<path fill-rule="evenodd" clip-rule="evenodd" d="M27.9166 11.5536C27.9166 16.3181 31.377 20.28 35.9027 21.0834V14.1619H33.5069V11.5001H35.9027V9.37019C35.9027 6.97435 37.4465 5.64387 39.6299 5.64387C40.3215 5.64387 41.0674 5.75008 41.759 5.8563V8.30564H40.5347C39.3631 8.30564 39.0972 8.89102 39.0972 9.63692V11.5001H41.6527L41.2271 14.1619H39.0972V21.0834C43.6229 20.28 47.0833 16.3189 47.0833 11.5536C47.0833 6.25321 42.7708 1.91675 37.5 1.91675C32.2291 1.91675 27.9166 6.25321 27.9166 11.5536Z" fill="#359740"/>
<path d="M101 6.03671C100.173 6.37721 99.2988 6.60229 98.404 6.70497C99.348 6.16966 100.055 5.32751 100.395 4.33475C99.5079 4.83601 98.5368 5.18918 97.524 5.3789C96.847 4.68201 95.9455 4.21812 94.9608 4.05999C93.9761 3.90186 92.964 4.05843 92.0832 4.50515C91.2023 4.95187 90.5026 5.66346 90.0938 6.52834C89.6849 7.39321 89.59 8.36244 89.824 9.28401C88.0304 9.1979 86.2759 8.75458 84.6745 7.98286C83.0732 7.21114 81.6607 6.12828 80.529 4.80462C80.1321 5.46261 79.9235 6.20777 79.924 6.96601C79.9226 7.67016 80.1046 8.36372 80.4539 8.98493C80.8032 9.60614 81.3089 10.1357 81.926 10.5265C81.2088 10.508 80.5069 10.3253 79.88 9.99403V10.0462C79.8854 11.0328 80.2496 11.9874 80.911 12.7485C81.5725 13.5095 82.4906 14.0303 83.51 14.2228C83.1176 14.3362 82.7102 14.396 82.3 14.4003C82.0161 14.3972 81.7329 14.3727 81.453 14.3272C81.7433 15.1759 82.3051 15.9176 83.0602 16.4491C83.8153 16.9806 84.7261 17.2754 85.666 17.2926C84.0789 18.478 82.1195 19.125 80.1 19.1303C79.7323 19.1315 79.3649 19.1105 79 19.0677C81.0619 20.3314 83.4647 21.0022 85.919 20.9993C87.6127 21.016 89.2928 20.7122 90.8614 20.1056C92.43 19.4991 93.8555 18.6019 95.0547 17.4665C96.2539 16.3311 97.2028 14.9802 97.8458 13.4929C98.4889 12.0055 98.8132 10.4114 98.8 8.8037C98.8 8.6262 98.8 8.43825 98.8 8.25031C99.6632 7.63928 100.408 6.89023 101 6.03671Z" fill="#359740"/>
<path d="M64 2C62.0222 2 60.0888 2.58649 58.4443 3.6853C56.7998 4.78412 55.5181 6.3459 54.7612 8.17316C54.0043 10.0004 53.8063 12.0111 54.1922 13.9509C54.578 15.8907 55.5304 17.6725 56.9289 19.0711C58.3275 20.4696 60.1093 21.422 62.0491 21.8078C63.9889 22.1937 65.9996 21.9957 67.8268 21.2388C69.6541 20.4819 71.2159 19.2002 72.3147 17.5557C73.4135 15.9112 74 13.9778 74 12C74.0001 10.6867 73.7415 9.38634 73.239 8.17303C72.7365 6.95973 71.9999 5.8573 71.0713 4.92869C70.1427 4.00008 69.0403 3.26349 67.827 2.76098C66.6137 2.25847 65.3133 1.99989 64 2ZM67.1795 17.1525C67.1421 17.2458 67.0851 17.33 67.0125 17.3996C66.9398 17.4691 66.8532 17.5223 66.7583 17.5556C66.6634 17.5888 66.5625 17.6015 66.4623 17.5926C66.3621 17.5837 66.265 17.5535 66.1775 17.504L63.4628 15.3946L61.7205 17.002C61.6801 17.0319 61.6328 17.0511 61.583 17.0579C61.5332 17.0647 61.4825 17.0589 61.4355 17.0409L61.7695 14.0525L61.7802 14.061L61.787 14.002C61.787 14.002 66.672 9.55445 66.871 9.36496C67.0725 9.17596 67.006 9.13496 67.006 9.13496C67.0175 8.90443 66.6445 9.13496 66.6445 9.13496L60.172 13.299L57.4765 12.381C57.4765 12.381 57.0625 12.2325 57.0235 11.906C56.9825 11.582 57.49 11.406 57.49 11.406L68.207 7.14849C68.207 7.14849 69.088 6.75597 69.088 7.406L67.1795 17.1525Z" fill="#359740"/>
<path d="M115.498 3.04541C115.784 3.08251 116.073 3.1159 116.359 3.16414C117.008 3.27544 117.632 3.47579 118.207 3.80229C119.182 4.35883 119.717 5.20846 119.828 6.31411C119.884 6.84838 119.899 7.38636 119.902 7.92434C119.913 9.37875 119.91 10.8294 119.906 12.2838C119.906 12.8997 120.095 13.4489 120.459 13.9423C120.574 14.0981 120.696 14.2465 120.804 14.4024C120.974 14.651 120.952 14.881 120.726 15.0776C120.158 15.5748 119.587 16.0683 119.012 16.5543C118.741 16.7843 118.481 16.7658 118.214 16.5283C117.817 16.1721 117.468 15.7752 117.172 15.3299C116.986 15.0517 116.979 15.0554 116.749 15.2891C116.259 15.7863 115.732 16.2426 115.068 16.4801C114.649 16.6285 114.2 16.7213 113.754 16.7843C113.228 16.8548 112.693 16.8622 112.166 16.7509C110.757 16.4578 109.851 15.6193 109.532 14.2094C109.276 13.0667 109.365 11.9462 109.959 10.9036C110.382 10.1653 111.009 9.6533 111.766 9.28228C112.812 8.77398 113.94 8.5996 115.083 8.46974C115.498 8.42151 115.917 8.39183 116.337 8.35844C116.474 8.34731 116.541 8.28052 116.533 8.14695C116.515 7.7277 116.526 7.30474 116.47 6.88919C116.374 6.19167 115.951 5.77613 115.264 5.63143C114.489 5.46447 113.606 5.79097 113.183 6.42171C113.057 6.60722 112.975 6.82983 112.905 7.04502C112.779 7.43459 112.649 7.53477 112.241 7.48654C111.584 7.40862 110.927 7.32329 110.274 7.23795C109.881 7.18601 109.766 7.03018 109.844 6.64803C110.085 5.49044 110.686 4.57402 111.692 3.93957C112.515 3.42014 113.432 3.18269 114.393 3.08993C114.478 3.08251 114.563 3.06396 114.649 3.04912C114.931 3.04541 115.213 3.04541 115.498 3.04541ZM116.556 10.9964C116.548 10.9964 116.541 10.9964 116.537 10.9964C116.537 10.8369 116.537 10.6736 116.537 10.5141C116.533 10.2729 116.504 10.2284 116.274 10.2469C115.78 10.284 115.283 10.3026 114.801 10.4028C113.257 10.7218 112.471 12.2133 113.079 13.6232C113.279 14.0907 113.636 14.3801 114.144 14.4432C114.853 14.5322 115.413 14.2317 115.836 13.6863C116.181 13.2411 116.407 12.7291 116.474 12.1651C116.515 11.7755 116.53 11.386 116.556 10.9964Z" fill="#359740"/>
<path d="M106 17.4783C106.219 17.1444 106.442 17.0888 106.801 17.278C107.888 17.8419 108.961 18.4319 110.066 18.955C111.291 19.5375 112.582 19.9159 113.936 20.0532C115.057 20.1682 116.17 20.0792 117.279 19.9011C118.826 19.6525 120.307 19.1887 121.746 18.5765C121.898 18.5135 122.058 18.4504 122.221 18.4356C122.481 18.4096 122.692 18.5506 122.789 18.7695C122.881 18.9847 122.837 19.2444 122.618 19.4002C122.199 19.7045 121.772 20.005 121.323 20.261C119.539 21.2665 117.617 21.8527 115.572 22.0159C115.524 22.0196 115.476 22.0345 115.428 22.0419C115.008 22.0419 114.585 22.0419 114.166 22.0419C114.118 22.0345 114.07 22.0196 114.021 22.0159C112.586 21.9009 111.254 21.4557 109.996 20.773C108.608 20.0198 107.38 19.0403 106.2 18.0052C106.119 17.9347 106.07 17.8271 106.007 17.738C106 17.6527 106 17.5637 106 17.4783Z" fill="#359740"/>
<path d="M124.996 17.7005C124.915 18.0418 124.848 18.3906 124.744 18.7245C124.581 19.2365 124.317 19.6966 123.954 20.0973C123.861 20.1975 123.761 20.2939 123.65 20.3644C123.471 20.4795 123.271 20.4683 123.13 20.3496C122.971 20.216 122.952 20.0416 123.011 19.8598C123.141 19.4666 123.282 19.077 123.408 18.6837C123.468 18.4945 123.509 18.3016 123.538 18.1049C123.575 17.8526 123.523 17.7821 123.267 17.7821C122.867 17.7858 122.466 17.8081 122.065 17.8341C121.88 17.8452 121.698 17.8823 121.516 17.912C121.271 17.9491 121.082 17.8675 120.997 17.6894C120.911 17.5039 120.971 17.285 121.171 17.1328C121.575 16.8286 122.028 16.6245 122.533 16.5355C123.112 16.4353 123.687 16.4056 124.265 16.5095C124.622 16.5726 124.918 16.7062 125 17.1069C124.996 17.3035 124.996 17.5039 124.996 17.7005Z" fill="#359740"/>
</svg>
