<svg width="22" height="17" viewBox="0 0 22 17" fill="none" xmlns="http://www.w3.org/2000/svg">
<path d="M21.0533 2.58C20.9913 2.50353 20.9131 2.44174 20.8243 2.39909C20.7356 2.35644 20.6385 2.33399 20.54 2.33333H6.66L7.09333 3.66667H19.6667L17.8867 11.6667H7.88666L4.84 2.02C4.80704 1.91764 4.74982 1.82477 4.6732 1.74931C4.59658 1.67386 4.50285 1.61806 4.4 1.58667L1.66666 0.746668C1.58262 0.720841 1.49431 0.711822 1.40678 0.720124C1.31924 0.728426 1.2342 0.753888 1.15651 0.795055C0.999608 0.878197 0.882157 1.02026 0.829997 1.19C0.777838 1.35974 0.795244 1.54325 0.878385 1.70015C0.961526 1.85706 1.10359 1.97451 1.27333 2.02667L3.66666 2.76L6.72666 12.4267L5.63333 13.32L5.54666 13.4067C5.27622 13.7183 5.12293 14.1145 5.1132 14.5271C5.10346 14.9396 5.23789 15.3426 5.49333 15.6667C5.67504 15.8876 5.90594 16.063 6.16756 16.1788C6.42918 16.2945 6.71426 16.3475 7 16.3333H18.1267C18.3035 16.3333 18.473 16.2631 18.5981 16.1381C18.7231 16.013 18.7933 15.8435 18.7933 15.6667C18.7933 15.4899 18.7231 15.3203 18.5981 15.1953C18.473 15.0702 18.3035 15 18.1267 15H6.89333C6.81656 14.9974 6.74177 14.975 6.67617 14.935C6.61057 14.8951 6.55639 14.8389 6.51886 14.7718C6.48133 14.7048 6.46172 14.6293 6.46192 14.5524C6.46211 14.4756 6.48212 14.4002 6.52 14.3333L8.12666 13H18.42C18.5741 13.0038 18.7248 12.954 18.8463 12.8592C18.9679 12.7644 19.0528 12.6304 19.0867 12.48L21.2 3.14667C21.2203 3.04728 21.2176 2.94458 21.1922 2.84638C21.1668 2.74818 21.1193 2.65707 21.0533 2.58Z" fill="#359740"/>
</svg>
