<svg width="22" height="22" viewBox="0 0 22 22" fill="none" xmlns="http://www.w3.org/2000/svg">
<path d="M19.3867 6.17495C18.1398 4.27189 16.1876 3.07213 14.0928 2.73427C14.1142 2.58947 14.0928 2.43088 14.0145 2.29297C13.8648 2.03096 13.5585 1.88616 13.245 1.94822L8.9201 2.81011L8.3216 1.03116C8.2361 0.776039 8.00097 0.58987 7.7231 0.562289C7.44522 0.534709 7.17447 0.665717 7.03197 0.900152L5.74235 3.03076C4.86597 2.38261 3.7901 1.94132 2.69997 1.94132C2.3081 1.94132 1.98747 2.2516 1.98747 2.63084C1.98747 3.01007 2.3081 3.32035 2.69997 3.32035C3.52647 3.32035 4.35297 3.70648 5.00847 4.22362L0.883099 6.88515C0.619474 7.05064 0.505474 7.36781 0.598099 7.65741C0.683599 7.94701 0.961474 8.14697 1.27497 8.14697H3.17735L2.00885 12.0979C1.92335 12.4013 2.0516 12.7185 2.32947 12.877C2.44347 12.946 2.57172 12.9667 2.69997 12.9667C2.71422 15.2214 3.74735 17.4072 5.64972 18.8138C8.4641 20.8892 12.561 21.9442 17.8335 21.9442C18.033 21.9442 18.2325 21.9442 18.432 21.9373C20.085 21.9097 21.4886 20.6893 21.6952 19.0965C22.3721 13.8906 21.5955 9.54668 19.3867 6.17495ZM20.2845 18.9241C20.1633 19.8412 19.3653 20.5445 18.4177 20.5583C13.1808 20.6341 9.1766 19.6826 6.51897 17.7175C4.65222 16.3384 3.8186 14.0285 4.23185 11.8083L5.25785 10.8499C4.31735 13.1253 4.99422 15.7247 6.9536 17.1727C9.38322 18.9655 13.0455 19.8756 17.8335 19.8756C18.0258 19.8756 18.2182 19.8756 18.4177 19.8687C18.8096 19.8618 19.1231 19.5447 19.116 19.1654C19.1088 18.7862 18.7882 18.4897 18.4035 18.4897C18.3963 18.4897 18.3963 18.4897 18.3892 18.4897C13.6511 18.5725 10.0886 17.745 7.82285 16.0764C6.2981 14.9525 5.82785 12.8495 6.71135 11.0843L8.55672 13.4011C8.68497 13.5666 8.89872 13.6631 9.11247 13.6631C9.19085 13.6631 9.26922 13.6493 9.34047 13.6286C9.6326 13.5321 9.82497 13.2701 9.82497 12.9736V8.06422L14.898 7.45056C15.2186 7.40918 15.4751 7.16785 15.5178 6.85757C15.5606 6.54729 15.3825 6.2508 15.0832 6.12668L12.0765 4.93382L12.9885 4.01677C15.0191 4.05124 16.9927 5.08552 18.1826 6.90584C20.2061 10.0087 20.9186 14.0492 20.2845 18.9241ZM5.94185 5.27168C5.9561 5.26479 5.9561 5.25789 5.96322 5.251C6.1556 5.54749 6.26247 5.83709 6.26247 6.07842C6.26247 6.45765 6.5831 6.76793 6.97497 6.76793C7.36685 6.76793 7.68747 6.45765 7.68747 6.07842C7.68747 5.42338 7.34547 4.6856 6.78972 4.01677L7.45235 2.92043L7.75872 3.8306C7.87272 4.16846 8.22897 4.36152 8.5781 4.29257L11.2642 3.75475L10.3095 4.71318C10.1456 4.87866 10.0743 5.1131 10.1242 5.33374C10.1741 5.55439 10.3308 5.74056 10.5517 5.83019L12.0195 6.40939L9.01985 6.77483C8.67072 6.8162 8.39997 7.11269 8.39997 7.45745V10.9464L6.61872 8.70547C6.4976 8.54689 6.30522 8.45035 6.10572 8.43656C6.09147 8.43656 6.0701 8.43656 6.05585 8.43656C5.8706 8.43656 5.69247 8.50551 5.5571 8.62963L4.11785 9.98108L4.80897 7.63672C4.8731 7.43677 4.83035 7.21612 4.69497 7.04374C4.5596 6.87136 4.34585 6.76793 4.12497 6.76793H3.62622L5.94185 5.27168Z" fill="#359740"/>
<path d="M12.1691 10.7053C12.3116 10.8363 12.4897 10.9052 12.675 10.9052C12.8602 10.9052 13.0383 10.8363 13.1808 10.7053C13.4587 10.4364 13.4587 10.002 13.1808 9.73306L12.4683 9.04354C12.1905 8.77463 11.7416 8.77463 11.4637 9.04354C11.1858 9.31245 11.1858 9.74685 11.4637 10.0158L12.1691 10.7053Z" fill="#359740"/>
<path d="M16.4441 10.0157C16.5866 10.1467 16.7647 10.2157 16.9499 10.2157C17.1352 10.2157 17.3133 10.1467 17.4558 10.0157C17.7337 9.74679 17.7337 9.31239 17.4558 9.04348L16.7433 8.35397C16.4654 8.08505 16.0166 8.08505 15.7387 8.35397C15.4608 8.62288 15.4608 9.05727 15.7387 9.32618L16.4441 10.0157Z" fill="#359740"/>
<path d="M13.1808 14.5528L12.4683 13.8633C12.1905 13.5944 11.7416 13.5944 11.4637 13.8633C11.1858 14.1322 11.1858 14.5666 11.4637 14.8355L12.1762 15.525C12.3116 15.6629 12.4897 15.7319 12.675 15.7319C12.8602 15.7319 13.0383 15.6629 13.1808 15.5319C13.4587 15.263 13.4587 14.8217 13.1808 14.5528Z" fill="#359740"/>
<path d="M15.0191 13.4633C15.1616 13.5943 15.3397 13.6633 15.5249 13.6633C15.7102 13.6633 15.8883 13.5943 16.0308 13.4633C16.3087 13.1944 16.3087 12.76 16.0308 12.4911L15.3183 11.8016C15.0404 11.5327 14.5916 11.5327 14.3137 11.8016C14.0358 12.0705 14.0358 12.5049 14.3137 12.7738L15.0191 13.4633Z" fill="#359740"/>
<path d="M17.8691 13.4633L18.5816 14.1528C18.7241 14.2839 18.9022 14.3528 19.0875 14.3528C19.2727 14.3528 19.4508 14.2839 19.5933 14.1528C19.8712 13.8839 19.8712 13.4495 19.5933 13.1806L18.8808 12.4911C18.603 12.2222 18.1541 12.2222 17.8762 12.4911C17.5912 12.7531 17.5912 13.1944 17.8691 13.4633Z" fill="#359740"/>
<path d="M16.7433 15.2423C16.4654 14.9734 16.0166 14.9734 15.7387 15.2423C15.4608 15.5112 15.4608 15.9456 15.7387 16.2145L16.4512 16.904C16.5866 17.0419 16.7647 17.1109 16.9499 17.1109C17.1352 17.1109 17.3133 17.0419 17.4558 16.9109C17.7337 16.642 17.7337 16.2076 17.4558 15.9387L16.7433 15.2423Z" fill="#359740"/>
</svg>
